<svg preserveAspectRatio="none" width="100%" height="100%" overflow="visible" style="display: block;" viewBox="0 0 18 18" fill="none" xmlns="http://www.w3.org/2000/svg">
<g id="SVG">
<path id="Vector" d="M9.9255 15.189L15.75 9.225" stroke="var(--stroke-0, #90A1B9)" stroke-width="1.5" stroke-linecap="round" stroke-linejoin="round"/>
<path id="Vector_2" d="M12 4.5L5.6895 10.9395C5.40829 11.2208 5.25032 11.6023 5.25032 12C5.25032 12.3977 5.40829 12.7792 5.6895 13.0605C5.97079 13.3417 6.35225 13.4997 6.75 13.4997C7.14775 13.4997 7.52921 13.3417 7.8105 13.0605L14.121 6.621C14.6834 6.05842 14.9994 5.29549 14.9994 4.5C14.9994 3.70451 14.6834 2.94158 14.121 2.379C13.5584 1.81659 12.7955 1.50064 12 1.50064C11.2045 1.50064 10.4416 1.81659 9.879 2.379L3.56775 8.81775C2.72376 9.66173 2.24962 10.8064 2.24962 12C2.24962 13.1936 2.72376 14.3383 3.56775 15.1822C4.41174 16.0262 5.55642 16.5004 6.75 16.5004C7.94358 16.5004 9.08827 16.0262 9.93225 15.1822" stroke="var(--stroke-0, #90A1B9)" stroke-width="1.5" stroke-linecap="round" stroke-linejoin="round"/>
</g>
</svg>
